<svg version="1.1" viewBox="0.0 0.0 960.0 720.0" fill="none" stroke="none" stroke-linecap="square" stroke-miterlimit="10" xmlns:xlink="http://www.w3.org/1999/xlink" xmlns="http://www.w3.org/2000/svg"><clipPath id="p.0"><path d="m0 0l960.0 0l0 720.0l-960.0 0l0 -720.0z" clip-rule="nonzero"/></clipPath><g clip-path="url(#p.0)"><path fill="#000000" fill-opacity="0.0" d="m0 0l960.0 0l0 720.0l-960.0 0z" fill-rule="evenodd"/><path fill="#000000" fill-opacity="0.0" d="m211.52756 184.95538l551.68506 0l0 164.81891l-551.68506 0z" fill-rule="evenodd"/><path fill="#ffffff" d="m335.1409 235.31851q0.53125 1.0 0.984375 2.09375q0.46875 1.078125 0.90625 2.171875q0.4375 -1.140625 0.90625 -2.234375q0.46875 -1.09375 1.0 -2.09375l13.40625 -25.09375q0.25 -0.46875 0.515625 -0.75q0.265625 -0.28125 0.59375 -0.40625q0.328125 -0.125 0.734375 -0.15625q0.40625 -0.03125 0.984375 -0.03125l6.359375 0l0 45.296875l-7.4375 0l0 -29.265625q0 -0.8125 0.046875 -1.78125q0.046875 -0.96875 0.140625 -1.96875l-13.6875 25.6875q-0.46875 0.875 -1.21875 1.359375q-0.75 0.484375 -1.75 0.484375l-1.15625 0q-1.015625 0 -1.765625 -0.484375q-0.75 -0.484375 -1.21875 -1.359375l-13.875 -25.78125q0.125 1.03125 0.171875 2.015625q0.046875 0.984375 0.046875 1.828125l0 29.265625l-7.421875 0l0 -45.296875l6.359375 0q0.5625 0 0.96875 0.03125q0.40625 0.03125 0.734375 0.15625q0.328125 0.125 0.609375 0.40625q0.28125 0.28125 0.53125 0.75l13.53125 25.15625l0 0zm43.332977 -13.34375l0 32.140625l-7.734375 0l0 -32.140625l7.734375 0zm1.15625 -9.375q0 1.015625 -0.40625 1.890625q-0.40625 0.875 -1.078125 1.53125q-0.671875 0.65625 -1.578125 1.046875q-0.90625 0.390625 -1.953125 0.390625q-1.0 0 -1.890625 -0.390625q-0.890625 -0.390625 -1.546875 -1.046875q-0.65625 -0.65625 -1.046875 -1.53125q-0.390625 -0.875 -0.390625 -1.890625q0 -1.03125 0.390625 -1.9375q0.390625 -0.90625 1.046875 -1.5625q0.65625 -0.65625 1.546875 -1.046875q0.890625 -0.390625 1.890625 -0.390625q1.046875 0 1.953125 0.390625q0.90625 0.390625 1.578125 1.046875q0.671875 0.65625 1.078125 1.5625q0.40625 0.90625 0.40625 1.9375zm15.417389 -5.03125l0 26.65625l1.4375 0q0.78125 0 1.21875 -0.21875q0.4375 -0.21875 0.9375 -0.8125l8.0 -9.875q0.53125 -0.625 1.125 -0.984375q0.59375 -0.359375 1.5625 -0.359375l7.078125 0l-9.984375 11.9375q-0.53125 0.65625 -1.109375 1.203125q-0.5625 0.546875 -1.21875 0.953125q0.65625 0.46875 1.15625 1.09375q0.515625 0.625 1.015625 1.359375l10.703125 15.59375l-6.984375 0q-0.90625 0 -1.53125 -0.3125q-0.625 -0.3125 -1.125 -1.0625l-8.171875 -12.1875q-0.484375 -0.71875 -0.953125 -0.9375q-0.46875 -0.21875 -1.40625 -0.21875l-1.75 0l0 14.71875l-7.734375 0l0 -46.546875l7.734375 0zm38.128113 13.90625q3.03125 0 5.578125 0.96875q2.5625 0.96875 4.40625 2.84375q1.859375 1.859375 2.890625 4.578125q1.03125 2.703125 1.03125 6.171875q0 0.875 -0.078125 1.453125q-0.078125 0.578125 -0.28125 0.921875q-0.203125 0.328125 -0.546875 0.46875q-0.34375 0.140625 -0.875 0.140625l-19.859375 0q0.34375 4.9375 2.65625 7.265625q2.3125 2.3125 6.140625 2.3125q1.875 0 3.234375 -0.4375q1.375 -0.4375 2.390625 -0.96875q1.015625 -0.53125 1.78125 -0.96875q0.765625 -0.4375 1.484375 -0.4375q0.46875 0 0.8125 0.1875q0.359375 0.1875 0.609375 0.53125l2.25 2.8125q-1.28125 1.5 -2.890625 2.53125q-1.59375 1.015625 -3.328125 1.625q-1.734375 0.609375 -3.546875 0.859375q-1.796875 0.25 -3.484375 0.25q-3.359375 0 -6.25 -1.109375q-2.875 -1.109375 -5.0 -3.28125q-2.125 -2.1875 -3.359375 -5.390625q-1.21875 -3.21875 -1.21875 -7.453125q0 -3.28125 1.0625 -6.171875q1.078125 -2.90625 3.0625 -5.046875q1.984375 -2.15625 4.84375 -3.40625q2.875 -1.25 6.484375 -1.25zm0.15625 5.546875q-3.390625 0 -5.296875 1.90625q-1.90625 1.90625 -2.4375 5.421875l14.53125 0q0 -1.5 -0.40625 -2.828125q-0.40625 -1.34375 -1.265625 -2.34375q-0.84375 -1.0 -2.125 -1.578125q-1.28125 -0.578125 -3.0 -0.578125zm61.14502 -18.203125l0 6.703125l-20.078125 0l0 13.40625l16.953125 0l0 6.734375l-16.953125 0l0 18.453125l-8.4843445 0l0 -45.296875l28.56247 0zm14.415955 13.15625l0 32.140625l-7.734375 0l0 -32.140625l7.734375 0zm1.15625 -9.375q0 1.015625 -0.40625 1.890625q-0.40625 0.875 -1.078125 1.53125q-0.671875 0.65625 -1.578125 1.046875q-0.90625 0.390625 -1.953125 0.390625q-1.0 0 -1.890625 -0.390625q-0.890625 -0.390625 -1.546875 -1.046875q-0.65625 -0.65625 -1.046875 -1.53125q-0.390625 -0.875 -0.390625 -1.890625q0 -1.03125 0.390625 -1.9375q0.390625 -0.90625 1.046875 -1.5625q0.65625 -0.65625 1.546875 -1.046875q0.890625 -0.390625 1.890625 -0.390625q1.046875 0 1.953125 0.390625q0.90625 0.390625 1.578125 1.046875q0.671875 0.65625 1.078125 1.5625q0.40625 0.90625 0.40625 1.9375zm7.589264 41.515625l0 -32.140625l4.71875 0q1.515625 0 1.984375 1.40625l0.53125 2.53125q0.96875 -1.0 2.046875 -1.8125q1.078125 -0.8125 2.28125 -1.40625q1.21875 -0.59375 2.59375 -0.90625q1.375 -0.3125 3.0 -0.3125q2.640625 0 4.671875 0.890625q2.03125 0.890625 3.390625 2.515625q1.375 1.609375 2.078125 3.84375q0.703125 2.234375 0.703125 4.9375l0 20.453125l-7.734375 0l0 -20.453125q0 -2.953125 -1.375 -4.5625q-1.359375 -1.609375 -4.078125 -1.609375q-2.0 0 -3.765625 0.90625q-1.75 0.90625 -3.3125 2.46875l0 23.25l-7.734375 0zm58.229553 0q-1.5 0 -1.96875 -1.40625l-0.625 -3.109375q-1.0 1.125 -2.109375 2.046875q-1.09375 0.90625 -2.359375 1.5625q-1.265625 0.65625 -2.734375 1.015625q-1.453125 0.359375 -3.140625 0.359375q-2.625 0 -4.828125 -1.09375q-2.1875 -1.09375 -3.765625 -3.171875q-1.578125 -2.09375 -2.453125 -5.15625q-0.859375 -3.078125 -0.859375 -7.03125q0 -3.5625 0.96875 -6.625q0.984375 -3.078125 2.796875 -5.328125q1.8125 -2.265625 4.34375 -3.53125q2.546875 -1.265625 5.71875 -1.265625q2.6875 0 4.59375 0.859375q1.921875 0.859375 3.421875 2.296875l0 -16.96875l7.734375 0l0 46.546875l-4.734375 0zm-10.296875 -5.671875q2.40625 0 4.09375 -1.0q1.703125 -1.0 3.203125 -2.859375l0 -14.40625q-1.3125 -1.59375 -2.875 -2.25q-1.546875 -0.65625 -3.328125 -0.65625q-1.75 0 -3.1875 0.65625q-1.421875 0.65625 -2.40625 1.984375q-0.984375 1.328125 -1.515625 3.390625q-0.53125 2.046875 -0.53125 4.828125q0 2.828125 0.453125 4.796875q0.453125 1.953125 1.296875 3.1875q0.84375 1.234375 2.0625 1.78125q1.21875 0.546875 2.734375 0.546875zm31.636047 -40.875l0 46.546875l-7.734375 0l0 -46.546875l7.734375 0zm33.932983 46.546875l-3.484375 0q-1.09375 0 -1.71875 -0.328125q-0.625 -0.328125 -0.9375 -1.328125l-0.6875 -2.296875q-1.234375 1.109375 -2.40625 1.9375q-1.171875 0.828125 -2.421875 1.390625q-1.25 0.5625 -2.671875 0.84375q-1.40625 0.28125 -3.125 0.28125q-2.03125 0 -3.765625 -0.546875q-1.71875 -0.546875 -2.953125 -1.640625q-1.234375 -1.09375 -1.9375 -2.71875q-0.6875 -1.640625 -0.6875 -3.796875q0 -1.828125 0.953125 -3.59375q0.96875 -1.765625 3.1875 -3.1875q2.21875 -1.4375 5.921875 -2.375q3.703125 -0.9375 9.171875 -1.0625l0 -1.875q0 -3.234375 -1.359375 -4.78125q-1.359375 -1.546875 -3.953125 -1.546875q-1.890625 0 -3.140625 0.4375q-1.25 0.4375 -2.171875 0.984375q-0.921875 0.546875 -1.71875 0.984375q-0.78125 0.4375 -1.71875 0.4375q-0.78125 0 -1.34375 -0.40625q-0.5625 -0.40625 -0.90625 -1.0l-1.40625 -2.46875q5.546875 -5.078125 13.375 -5.078125q2.8125 0 5.015625 0.921875q2.21875 0.921875 3.75 2.578125q1.53125 1.640625 2.328125 3.921875q0.8125 2.28125 0.8125 5.015625l0 20.296875zm-15.046875 -4.828125q1.1875 0 2.1875 -0.21875q1.015625 -0.21875 1.90625 -0.65625q0.890625 -0.4375 1.71875 -1.078125q0.828125 -0.640625 1.671875 -1.515625l0 -5.421875q-3.375 0.15625 -5.65625 0.578125q-2.265625 0.421875 -3.640625 1.078125q-1.375 0.65625 -1.953125 1.53125q-0.578125 0.875 -0.578125 1.921875q0 2.03125 1.203125 2.90625q1.203125 0.875 3.140625 0.875zm32.92267 13.65625q-0.34375 0.828125 -0.890625 1.25q-0.546875 0.421875 -1.671875 0.421875l-5.765625 0l6.015625 -12.875l-13.0 -29.765625l6.765625 0q0.9375 0 1.4375 0.4375q0.5 0.4375 0.75 1.0l6.875 16.671875q0.34375 0.8125 0.59375 1.6875q0.25 0.875 0.4375 1.75q0.25 -0.90625 0.546875 -1.75q0.296875 -0.84375 0.640625 -1.71875l6.453125 -16.640625q0.25 -0.625 0.828125 -1.03125q0.578125 -0.40625 1.296875 -0.40625l6.203125 0l-17.515625 40.96875z" fill-rule="nonzero"/><path fill="#ffffff" d="m273.29657 292.8416l0 33.59375l-3.421875 0l0 -26.875l-13.1875 22.609375l-1.6875 0l-13.203125 -22.46875l0 26.734375l-3.40625 0l0 -33.59375l2.9375 0l14.578125 24.90625l14.453125 -24.90625l2.9375 0zm32.199463 22.03125l-21.125 0q0.296875 3.9375 3.03125 6.359375q2.734375 2.421875 6.90625 2.421875q2.359375 0 4.328125 -0.84375q1.96875 -0.84375 3.40625 -2.46875l1.921875 2.203125q-1.6875 2.015625 -4.203125 3.078125q-2.515625 1.046875 -5.546875 1.046875q-3.890625 0 -6.890625 -1.65625q-3.0 -1.65625 -4.6875 -4.578125q-1.671875 -2.921875 -1.671875 -6.625q0 -3.6875 1.609375 -6.609375q1.609375 -2.9375 4.421875 -4.5625q2.8125 -1.640625 6.3125 -1.640625q3.5 0 6.28125 1.640625q2.78125 1.625 4.359375 4.53125q1.59375 2.890625 1.59375 6.640625l-0.046875 1.0625zm-12.1875 -10.953125q-3.65625 0 -6.125 2.328125q-2.46875 2.328125 -2.8125 6.078125l17.90625 0q-0.328125 -3.75 -2.8125 -6.078125q-2.46875 -2.328125 -6.15625 -2.328125zm29.66394 22.75q-3.75 0 -6.703125 -1.625q-2.953125 -1.640625 -4.640625 -4.578125q-1.671875 -2.953125 -1.671875 -6.65625q0 -3.6875 1.671875 -6.609375q1.6875 -2.9375 4.640625 -4.5625q2.953125 -1.640625 6.703125 -1.640625q3.265625 0 5.828125 1.28125q2.5625 1.265625 4.0625 3.703125l-2.546875 1.734375q-1.25 -1.875 -3.171875 -2.8125q-1.921875 -0.9375 -4.171875 -0.9375q-2.734375 0 -4.921875 1.234375q-2.1875 1.21875 -3.421875 3.484375q-1.21875 2.25 -1.21875 5.125q0 2.921875 1.21875 5.15625q1.234375 2.234375 3.421875 3.46875q2.1875 1.21875 4.921875 1.21875q2.25 0 4.171875 -0.90625q1.921875 -0.921875 3.171875 -2.796875l2.546875 1.734375q-1.5 2.453125 -4.09375 3.71875q-2.578125 1.265625 -5.796875 1.265625zm29.03067 -25.671875q4.765625 0 7.5625 2.765625q2.8125 2.75 2.8125 8.03125l0 14.640625l-3.40625 0l0 -14.296875q0 -3.9375 -1.96875 -6.0q-1.96875 -2.078125 -5.625 -2.078125q-4.078125 0 -6.453125 2.4375q-2.375 2.421875 -2.375 6.6875l0 13.25l-3.40625 0l0 -35.609375l3.40625 0l0 14.78125q1.390625 -2.21875 3.84375 -3.40625q2.453125 -1.203125 5.609375 -1.203125zm28.464813 0q4.953125 0 7.59375 2.46875q2.640625 2.46875 2.640625 7.328125l0 15.640625l-3.265625 0l0 -3.9375q-1.15625 1.96875 -3.390625 3.078125q-2.234375 1.09375 -5.296875 1.09375q-4.234375 0 -6.734375 -2.015625q-2.484375 -2.015625 -2.484375 -5.328125q0 -3.203125 2.328125 -5.171875q2.328125 -1.96875 7.421875 -1.96875l8.015625 0l0 -1.546875q0 -3.265625 -1.828125 -4.96875q-1.828125 -1.703125 -5.328125 -1.703125q-2.40625 0 -4.609375 0.796875q-2.203125 0.796875 -3.796875 2.1875l-1.53125 -2.546875q1.921875 -1.625 4.609375 -2.515625q2.6875 -0.890625 5.65625 -0.890625zm-1.1875 22.984375q2.875 0 4.9375 -1.3125q2.0625 -1.328125 3.078125 -3.8125l0 -4.140625l-7.921875 0q-6.484375 0 -6.484375 4.515625q0 2.21875 1.671875 3.484375q1.6875 1.265625 4.71875 1.265625zm33.53882 -22.984375q4.765625 0 7.5625 2.765625q2.8125 2.75 2.8125 8.03125l0 14.640625l-3.40625 0l0 -14.296875q0 -3.9375 -1.96875 -6.0q-1.96875 -2.078125 -5.625 -2.078125q-4.078125 0 -6.453125 2.4375q-2.375 2.421875 -2.375 6.6875l0 13.25l-3.40625 0l0 -25.25l3.265625 0l0 4.65625q1.390625 -2.296875 3.859375 -3.5625q2.484375 -1.28125 5.734375 -1.28125zm19.636688 0.1875l3.40625 0l0 25.25l-3.40625 0l0 -25.25zm1.71875 -5.515625q-1.046875 0 -1.765625 -0.71875q-0.71875 -0.71875 -0.71875 -1.734375q0 -0.953125 0.71875 -1.671875q0.71875 -0.71875 1.765625 -0.71875q1.0625 0 1.78125 0.703125q0.71875 0.6875 0.71875 1.640625q0 1.0625 -0.71875 1.78125q-0.71875 0.71875 -1.78125 0.71875zm21.662018 31.0q-3.75 0 -6.703125 -1.625q-2.953125 -1.640625 -4.640625 -4.578125q-1.671875 -2.953125 -1.671875 -6.65625q0 -3.6875 1.671875 -6.609375q1.6875 -2.9375 4.640625 -4.5625q2.953125 -1.640625 6.703125 -1.640625q3.265625 0 5.828125 1.28125q2.5625 1.265625 4.0625 3.703125l-2.546875 1.734375q-1.25 -1.875 -3.171875 -2.8125q-1.921875 -0.9375 -4.171875 -0.9375q-2.734375 0 -4.921875 1.234375q-2.1875 1.21875 -3.421875 3.484375q-1.21875 2.25 -1.21875 5.125q0 2.921875 1.21875 5.15625q1.234375 2.234375 3.421875 3.46875q2.1875 1.21875 4.921875 1.21875q2.25 0 4.171875 -0.90625q1.921875 -0.921875 3.171875 -2.796875l2.546875 1.734375q-1.5 2.453125 -4.09375 3.71875q-2.578125 1.265625 -5.796875 1.265625zm25.383423 -25.671875q4.953125 0 7.59375 2.46875q2.640625 2.46875 2.640625 7.328125l0 15.640625l-3.265625 0l0 -3.9375q-1.15625 1.96875 -3.390625 3.078125q-2.234375 1.09375 -5.296875 1.09375q-4.234375 0 -6.734375 -2.015625q-2.484375 -2.015625 -2.484375 -5.328125q0 -3.203125 2.328125 -5.171875q2.328125 -1.96875 7.421875 -1.96875l8.015625 0l0 -1.546875q0 -3.265625 -1.828125 -4.96875q-1.828125 -1.703125 -5.328125 -1.703125q-2.40625 0 -4.609375 0.796875q-2.203125 0.796875 -3.796875 2.1875l-1.53125 -2.546875q1.921875 -1.625 4.609375 -2.515625q2.6875 -0.890625 5.65625 -0.890625zm-1.1875 22.984375q2.875 0 4.9375 -1.3125q2.0625 -1.328125 3.078125 -3.8125l0 -4.140625l-7.921875 0q-6.484375 0 -6.484375 4.515625q0 2.21875 1.671875 3.484375q1.6875 1.265625 4.71875 1.265625zm20.679443 -33.15625l3.40625 0l0 35.609375l-3.40625 0l0 -35.609375zm49.972473 32.53125l0 3.078125l-23.765625 0l0 -33.59375l23.046875 0l0 3.0625l-19.484375 0l0 11.953125l17.375 0l0 3.03125l-17.375 0l0 12.46875l20.203125 0zm20.48706 -22.359375q4.765625 0 7.5625 2.765625q2.8125 2.75 2.8125 8.03125l0 14.640625l-3.40625 0l0 -14.296875q0 -3.9375 -1.96875 -6.0q-1.96875 -2.078125 -5.625 -2.078125q-4.078125 0 -6.453125 2.4375q-2.375 2.421875 -2.375 6.6875l0 13.25l-3.40625 0l0 -25.25l3.265625 0l0 4.65625q1.390625 -2.296875 3.859375 -3.5625q2.484375 -1.28125 5.734375 -1.28125zm43.107666 0.1875l0 22.171875q0 6.4375 -3.140625 9.53125q-3.140625 3.09375 -9.484375 3.09375q-3.5 0 -6.640625 -1.03125q-3.140625 -1.03125 -5.109375 -2.859375l1.71875 -2.578125q1.828125 1.625 4.4375 2.53125q2.625 0.921875 5.5 0.921875q4.796875 0 7.046875 -2.234375q2.265625 -2.234375 2.265625 -6.9375l0 -3.21875q-1.578125 2.40625 -4.15625 3.65625q-2.5625 1.25 -5.6875 1.25q-3.546875 0 -6.453125 -1.5625q-2.90625 -1.5625 -4.5625 -4.375q-1.65625 -2.8125 -1.65625 -6.359375q0 -3.546875 1.65625 -6.328125q1.65625 -2.796875 4.53125 -4.328125q2.890625 -1.53125 6.484375 -1.53125q3.21875 0 5.8125 1.296875q2.59375 1.296875 4.171875 3.734375l0 -4.84375l3.265625 0zm-12.90625 21.265625q2.734375 0 4.9375 -1.171875q2.21875 -1.1875 3.4375 -3.296875q1.21875 -2.109375 1.21875 -4.796875q0 -2.6875 -1.21875 -4.765625q-1.21875 -2.09375 -3.40625 -3.265625q-2.1875 -1.1875 -4.96875 -1.1875q-2.734375 0 -4.921875 1.15625q-2.1875 1.15625 -3.421875 3.265625q-1.21875 2.109375 -1.21875 4.796875q0 2.6875 1.21875 4.796875q1.234375 2.109375 3.421875 3.296875q2.1875 1.171875 4.921875 1.171875zm22.45935 -21.265625l3.40625 0l0 25.25l-3.40625 0l0 -25.25zm1.71875 -5.515625q-1.046875 0 -1.765625 -0.71875q-0.71875 -0.71875 -0.71875 -1.734375q0 -0.953125 0.71875 -1.671875q0.71875 -0.71875 1.765625 -0.71875q1.0625 0 1.78125 0.703125q0.71875 0.6875 0.71875 1.640625q0 1.0625 -0.71875 1.78125q-0.71875 0.71875 -1.78125 0.71875zm24.052612 5.328125q4.765625 0 7.5625 2.765625q2.8125 2.75 2.8125 8.03125l0 14.640625l-3.40625 0l0 -14.296875q0 -3.9375 -1.96875 -6.0q-1.96875 -2.078125 -5.625 -2.078125q-4.078125 0 -6.453125 2.4375q-2.375 2.421875 -2.375 6.6875l0 13.25l-3.40625 0l0 -25.25l3.265625 0l0 4.65625q1.390625 -2.296875 3.859375 -3.5625q2.484375 -1.28125 5.734375 -1.28125zm41.71704 13.875l-21.125 0q0.296875 3.9375 3.03125 6.359375q2.734375 2.421875 6.90625 2.421875q2.359375 0 4.328125 -0.84375q1.96875 -0.84375 3.40625 -2.46875l1.921875 2.203125q-1.6875 2.015625 -4.203125 3.078125q-2.515625 1.046875 -5.546875 1.046875q-3.890625 0 -6.890625 -1.65625q-3.0 -1.65625 -4.6875 -4.578125q-1.671875 -2.921875 -1.671875 -6.625q0 -3.6875 1.609375 -6.609375q1.609375 -2.9375 4.421875 -4.5625q2.8125 -1.640625 6.3125 -1.640625q3.5 0 6.28125 1.640625q2.78125 1.625 4.359375 4.53125q1.59375 2.890625 1.59375 6.640625l-0.046875 1.0625zm-12.1875 -10.953125q-3.65625 0 -6.125 2.328125q-2.46875 2.328125 -2.8125 6.078125l17.90625 0q-0.328125 -3.75 -2.8125 -6.078125q-2.46875 -2.328125 -6.15625 -2.328125zm41.179565 10.953125l-21.125 0q0.296875 3.9375 3.03125 6.359375q2.734375 2.421875 6.90625 2.421875q2.359375 0 4.328125 -0.84375q1.96875 -0.84375 3.40625 -2.46875l1.921875 2.203125q-1.6875 2.015625 -4.203125 3.078125q-2.515625 1.046875 -5.546875 1.046875q-3.890625 0 -6.890625 -1.65625q-3.0 -1.65625 -4.6875 -4.578125q-1.671875 -2.921875 -1.671875 -6.625q0 -3.6875 1.609375 -6.609375q1.609375 -2.9375 4.421875 -4.5625q2.8125 -1.640625 6.3125 -1.640625q3.5 0 6.28125 1.640625q2.78125 1.625 4.359375 4.53125q1.59375 2.890625 1.59375 6.640625l-0.046875 1.0625zm-12.1875 -10.953125q-3.65625 0 -6.125 2.328125q-2.46875 2.328125 -2.8125 6.078125l17.90625 0q-0.328125 -3.75 -2.8125 -6.078125q-2.46875 -2.328125 -6.15625 -2.328125zm22.460815 2.21875q1.203125 -2.546875 3.578125 -3.84375q2.375 -1.296875 5.875 -1.296875l0 3.3125l-0.8125 -0.046875q-3.984375 0 -6.25 2.453125q-2.25 2.4375 -2.25 6.859375l0 12.859375l-3.40625 0l0 -25.25l3.265625 0l0 4.953125z" fill-rule="nonzero"/><path fill="#000000" fill-opacity="0.0" d="m181.35432 168.25984l611.3071 2.582672" fill-rule="evenodd"/><path stroke="#ffffff" stroke-width="4.0" stroke-linejoin="round" stroke-linecap="butt" d="m181.35432 168.25984l611.3071 2.582672" fill-rule="evenodd"/><path fill="#000000" fill-opacity="0.0" d="m183.29933 313.90027l38.393692 -0.94488525" fill-rule="evenodd"/><path stroke="#ffffff" stroke-width="4.0" stroke-linejoin="round" stroke-linecap="butt" d="m183.29933 313.90027l38.393692 -0.94488525" fill-rule="evenodd"/><path fill="#000000" fill-opacity="0.0" d="m183.6588 168.95538l0.94487 144.0" fill-rule="evenodd"/><path stroke="#ffffff" stroke-width="4.0" stroke-linejoin="round" stroke-linecap="butt" d="m183.6588 168.95538l0.94487 144.0" fill-rule="evenodd"/><path fill="#000000" fill-opacity="0.0" d="m754.8205 313.90027l38.393677 -0.94488525" fill-rule="evenodd"/><path stroke="#ffffff" stroke-width="4.0" stroke-linejoin="round" stroke-linecap="butt" d="m754.8205 313.90027l38.393677 -0.94488525" fill-rule="evenodd"/><path fill="#000000" fill-opacity="0.0" d="m790.1365 168.95538l0.94488525 144.0" fill-rule="evenodd"/><path stroke="#ffffff" stroke-width="4.0" stroke-linejoin="round" stroke-linecap="butt" d="m790.1365 168.95538l0.94488525 144.0" fill-rule="evenodd"/></g></svg>